HIERARCHY
ROOT Hips
{
	OFFSET -6.501393 103.544830 -3.308209
	CHANNELS 6 Xposition Yposition Zposition Zrotation Yrotation Xrotation 
	JOINT Chest
	{
		OFFSET 3.490766 13.188873 -0.149589
		CHANNELS 6 Xposition Yposition Zposition Zrotation Yrotation Xrotation 
		JOINT Chest2
		{
			OFFSET 2.498665 20.695694 4.950911
			CHANNELS 6 Xposition Yposition Zposition Zrotation Yrotation Xrotation 
			JOINT Chest3
			{
				OFFSET 2.586676 14.483231 2.522879
				CHANNELS 6 Xposition Yposition Zposition Zrotation Yrotation Xrotation 
				JOINT Neck
				{
					OFFSET 3.658716 16.642105 2.875753
					CHANNELS 6 Xposition Yposition Zposition Zrotation Yrotation Xrotation 
					JOINT Head
					{
						OFFSET 0.562498 9.917938 3.338517
						CHANNELS 6 Xposition Yposition Zposition Zrotation Yrotation Xrotation 
						End Site #name: Head_end_site
						{
							OFFSET 0.623727 9.927261 3.299727
						}
					}
				}
				JOINT LeftCollar
				{
					OFFSET 3.158933 11.826752 7.207877
					CHANNELS 6 Xposition Yposition Zposition Zrotation Yrotation Xrotation 
					JOINT LeftUpArm
					{
						OFFSET 9.662516 -4.699112 13.894368
						CHANNELS 6 Xposition Yposition Zposition Zrotation Yrotation Xrotation 
						JOINT LeftLowArm
						{
							OFFSET -26.061760 -12.379883 17.528591
							CHANNELS 6 Xposition Yposition Zposition Zrotation Yrotation Xrotation 
							JOINT LeftHand
							{
								OFFSET -23.105013 -13.493835 13.602276
								CHANNELS 6 Xposition Yposition Zposition Zrotation Yrotation Xrotation 
								End Site #name: LeftHand_end_site
								{
									OFFSET -5.049747 -2.949127 2.972858
								}
							}
						}
					}
				}
				JOINT RightCollar
				{
					OFFSET -1.958067 14.041336 0.903037
					CHANNELS 6 Xposition Yposition Zposition Zrotation Yrotation Xrotation 
					JOINT RightUpArm
					{
						OFFSET -7.902977 5.073425 -14.842493
						CHANNELS 6 Xposition Yposition Zposition Zrotation Yrotation Xrotation 
						JOINT RightLowArm
						{
							OFFSET -31.237156 3.028915 12.441875
							CHANNELS 6 Xposition Yposition Zposition Zrotation Yrotation Xrotation 
							JOINT RightHand
							{
								OFFSET 1.770481 -9.929611 28.270538
								CHANNELS 6 Xposition Yposition Zposition Zrotation Yrotation Xrotation 
								End Site #name: RightHand_end_site
								{
									OFFSET 0.386944 -2.170212 6.178812
								}
							}
						}
					}
				}
			}
		}
	}
	JOINT LeftUpLeg
	{
		OFFSET 6.008414 -1.501137 7.878114
		CHANNELS 6 Xposition Yposition Zposition Zrotation Yrotation Xrotation 
		JOINT LeftLowLeg
		{
			OFFSET -32.490929 -13.194344 31.847103
			CHANNELS 6 Xposition Yposition Zposition Zrotation Yrotation Xrotation 
			JOINT LeftFoot
			{
				OFFSET -27.394722 -30.609779 17.695694
				CHANNELS 6 Xposition Yposition Zposition Zrotation Yrotation Xrotation 
				JOINT LeftToe
				{
					OFFSET -14.301807 2.204399 18.712517
					CHANNELS 6 Xposition Yposition Zposition Zrotation Yrotation Xrotation 
					End Site #name: LeftToe_end_site
					{
						OFFSET -6.634720 15.950195 16.159538
					}
				}
			}
		}
	}
	JOINT RightUpLeg
	{
		OFFSET -6.008467 1.500946 -7.878115
		CHANNELS 6 Xposition Yposition Zposition Zrotation Yrotation Xrotation 
		JOINT RightLowLeg
		{
			OFFSET -7.669543 -46.691193 2.263450
			CHANNELS 6 Xposition Yposition Zposition Zrotation Yrotation Xrotation 
			JOINT RightFoot
			{
				OFFSET 16.419405 -39.122486 -14.156796
				CHANNELS 6 Xposition Yposition Zposition Zrotation Yrotation Xrotation 
				JOINT RightToe
				{
					OFFSET -13.268997 -16.468420 10.596312
					CHANNELS 6 Xposition Yposition Zposition Zrotation Yrotation Xrotation 
					End Site #name: RightToe_end_site
					{
						OFFSET -19.207935 -1.991539 13.661808
					}
				}
			}
		}
	}
}
MOTION
Frames: 4
Frame Time: 0.033333
-31.854750 107.773079 3.087674 17.276287 31.095181 14.762392 3.574291 13.036407 -0.206167 -10.806321 1.871777 -18.326647 2.478331 20.515055 4.956072 -5.370271 7.224793 0.035326 2.682589 14.378499 2.574681 0.595234 0.042156 7.224732 3.605142 16.476568 2.792193 -0.781602 2.904675 -3.646254 0.573794 9.811730 3.243235 -0.609189 2.390356 5.314555 3.172399 11.692371 7.155898 -1.687781 18.530546 5.848453 9.590182 -4.557971 13.834811 8.900630 22.927412 -7.094363 -25.874655 -12.373075 17.364929 -35.102005 -14.980268 -26.481816 -22.986910 -13.503523 13.403881 -0.245383 2.129338 2.731307 -1.901886 13.942352 0.946410 4.701756 -1.010021 -9.019837 -7.802293 5.031325 -14.641176 12.520348 -11.938916 1.189776 -30.878429 3.015990 12.389514 -15.593315 13.635913 -22.842314 1.722994 -9.900290 28.026752 -8.329294 0.293239 0.262945 5.960292 -1.522243 7.837558 31.920985 -8.534392 35.517865 -32.153084 -13.016767 31.625336 -2.938892 2.149968 -3.447265 -27.182919 -30.431980 17.481281 3.266132 0.467522 -3.500516 -14.167968 2.132581 18.515198 3.809288 7.025486 -0.676762 -5.826492 1.503915 -8.001233 -16.584702 -5.756317 -3.831183 -7.595039 -46.278545 2.252327 -9.783854 3.810084 -12.599284 16.271891 -38.691742 -13.988767 16.151543 -14.652627 11.015391 -13.064258 -16.395460 10.486969 -1.870928 2.138717 -1.624340 
-31.028049 107.840363 2.983579 17.597221 29.972636 15.135329 3.577369 13.041272 -0.205192 -10.964024 1.792915 -18.452647 2.478514 20.519484 4.952916 -5.005365 6.793854 0.090808 2.680702 14.383865 2.575376 0.615833 -0.012182 7.080944 3.601239 16.473780 2.794299 -0.669979 2.985922 -3.658117 0.570814 9.817882 3.243463 -0.460488 2.368043 4.947284 3.174997 11.690248 7.156236 -1.631608 18.985645 5.391173 9.591576 -4.561284 13.837337 9.305375 22.219387 -6.534735 -25.879282 -12.364526 17.368700 -34.671765 -15.230308 -26.650686 -22.986271 -13.504226 13.406688 -0.438577 2.221216 2.606184 -1.905508 13.944306 0.946030 4.859342 -0.927937 -8.965237 -7.806146 5.024943 -14.643923 12.624664 -12.402363 1.031804 -30.881845 3.014221 12.390332 -14.952483 13.863088 -21.919834 1.721182 -9.896307 28.029100 -8.066370 0.467440 0.657811 5.967379 -1.522933 7.833756 31.801941 -8.429504 35.490165 -32.161171 -13.016963 31.626087 -3.421344 2.039431 -3.892890 -27.180449 -30.430040 17.486835 3.177049 -0.035061 -3.578017 -14.169600 2.137722 18.518732 3.706376 7.267999 -1.101266 -5.826941 1.509277 -7.997293 -16.186785 -5.624381 -3.680319 -7.606236 -46.280262 2.247224 -9.553550 3.547037 -12.432554 16.271309 -38.699390 -13.989019 15.707731 -14.934036 11.331502 -13.064363 -16.395872 10.494803 -1.513455 2.193075 -1.944415 
-28.960640 107.958351 2.725931 17.429447 28.139824 15.480238 3.569655 13.051766 -0.194656 -11.061166 1.456705 -18.288001 2.482536 20.523232 4.942136 -4.547826 6.488806 0.214424 2.679415 14.379275 2.572702 0.604223 0.066874 6.228232 3.598110 16.473278 2.799618 -0.377752 2.650377 -3.188532 0.568676 9.820709 3.244532 -0.423070 2.013551 4.719357 3.177313 11.695231 7.161461 -2.045229 18.759559 5.514936 9.595834 -4.571018 13.837089 10.439919 21.909910 -5.650984 -25.888994 -12.353018 17.376158 -35.075876 -15.422823 -26.606597 -22.982012 -13.507722 13.409776 -0.759880 2.224890 2.270030 -1.905458 13.947115 0.944918 5.298758 -1.588758 -8.631540 -7.811154 5.025645 -14.652115 13.562534 -12.572125 0.586533 -30.889509 3.019422 12.387240 -13.306487 14.325907 -19.284706 1.719328 -9.891758 28.029024 -7.593535 0.485191 0.275894 5.971396 -1.520635 7.830367 31.999180 -9.068592 35.173999 -32.164970 -13.024067 31.626118 -3.876985 1.601598 -4.333954 -27.174618 -30.431904 17.493822 3.269962 -0.754989 -3.392479 -14.179652 2.137857 18.524853 3.819268 7.635990 -1.042692 -5.828354 1.508550 -7.993156 -15.588112 -5.185761 -4.434693 -7.608362 -46.290627 2.247896 -9.234707 3.008565 -12.265017 16.276764 -38.713551 -13.996830 15.555558 -15.412879 11.184843 -13.069652 -16.397650 10.494495 -1.508263 2.369144 -1.584582 
-25.881725 108.084328 2.350763 17.605280 26.251895 16.247184 3.573233 13.074070 -0.184341 -11.415806 1.496319 -18.649015 2.484839 20.533554 4.934598 -4.011909 5.596378 0.352633 2.678574 14.375036 2.571592 0.935595 -0.177796 6.071844 3.589356 16.478794 2.801752 0.094938 2.635307 -3.166264 0.570019 9.830629 3.245966 -0.432038 1.473984 4.299024 3.180690 11.691152 7.166057 -2.312677 19.068404 5.510529 9.601655 -4.582204 13.841140 12.056879 21.001519 -4.451430 -25.895737 -12.328496 17.384106 -35.205216 -16.202821 -26.295766 -22.976580 -13.505515 13.413310 -1.196230 2.002977 1.710730 -1.901950 13.950084 0.943805 5.933291 -1.971149 -8.511659 -7.818514 5.020751 -14.662328 14.360252 -13.496947 0.066794 -30.899759 3.025596 12.384645 -10.980204 14.805699 -15.723475 1.718882 -9.883611 28.027811 -6.819904 0.447073 -0.017590 5.979126 -1.525616 7.820795 32.014046 -9.379986 34.764078 -32.170769 -13.027188 31.616714 -5.072205 1.014891 -4.739356 -27.169266 -30.427031 17.500298 3.087483 -1.866992 -3.671406 -14.185182 2.140040 18.538328 3.833516 7.823163 -1.417047 -5.833565 1.509839 -7.982065 -14.778926 -4.769063 -4.448602 -7.626325 -46.292873 2.248167 -8.719045 2.398450 -11.936006 16.286510 -38.735119 -14.005895 15.095731 -16.052517 11.785259 -13.073195 -16.408890 10.503782 -1.074328 2.312428 -1.249228 
